<?xml version="1.0" standalone="no"?>
<!DOCTYPE svg PUBLIC "-//W3C//DTD SVG 20010904//EN"
 "http://www.w3.org/TR/2001/REC-SVG-20010904/DTD/svg10.dtd">
<svg version="1.0" xmlns="http://www.w3.org/2000/svg"
 width="260.000000pt" height="260.000000pt" viewBox="0 0 260.000000 260.000000"
 preserveAspectRatio="xMidYMid meet">
<metadata>
Created by potrace 1.11, written by Peter Selinger 2001-2013
</metadata>
<g transform="translate(0.000000,260.000000) scale(0.100000,-0.100000)"
fill="#000000" stroke="none">
<path d="M0 1300 l0 -1300 1300 0 1300 0 0 1300 0 1300 -1300 0 -1300 0 0
-1300z m1152 110 c98 -179 178 -328 178 -332 0 -5 -76 -8 -168 -8 l-168 0 -23
40 -22 40 -144 0 -144 0 -23 -42 c-15 -28 -31 -44 -46 -46 -20 -3 -23 0 -20
20 5 39 371 658 387 655 8 -1 95 -148 193 -327z m678 280 c102 -28 170 -106
170 -195 0 -53 -10 -77 -52 -122 l-30 -31 21 -21 c67 -67 42 -173 -52 -224
-39 -21 -57 -22 -274 -25 l-233 -4 0 316 0 316 208 0 c114 0 223 -5 242 -10z"/>
<path d="M762 1327 c-28 -47 -58 -99 -66 -116 l-17 -31 126 0 c69 0 125 2 125
5 0 7 -95 195 -108 214 -7 10 -23 -8 -60 -72z"/>
<path d="M1688 1533 c-1 -76 -1 -204 1 -285 l3 -148 34 0 c18 0 56 5 83 11
100 21 144 119 85 188 -22 26 -33 31 -71 31 -50 0 -83 14 -83 35 0 18 20 19
70 4 93 -28 169 82 126 184 -26 63 -123 117 -212 117 l-32 0 -4 -137z"/>
</g>
</svg>
